<svg width="61" height="60" viewBox="0 0 61 60" fill="none" xmlns="http://www.w3.org/2000/svg">
<path fill-rule="evenodd" clip-rule="evenodd" d="M23.2991 2.99642C24.1432 2.05365 25.1767 1.2995 26.3321 0.783181C27.4874 0.266867 28.7386 0 30.0041 0C31.2696 0 32.5208 0.266867 33.6761 0.783181C34.8315 1.2995 35.8649 2.05365 36.7091 2.99642L38.8091 5.34242C39.1092 5.67814 39.481 5.94199 39.897 6.11441C40.313 6.28683 40.7625 6.36339 41.2121 6.33842L44.3621 6.16442C45.6252 6.09505 46.8888 6.29275 48.0704 6.74462C49.252 7.19649 50.3251 7.89239 51.2196 8.78692C52.1141 9.68144 52.81 10.7545 53.2619 11.9361C53.7138 13.1177 53.9115 14.3813 53.8421 15.6444L53.6681 18.7944C53.6436 19.2435 53.7204 19.6924 53.8928 20.1078C54.0652 20.5233 54.3288 20.8946 54.6641 21.1944L57.0131 23.2944C57.9564 24.1386 58.7109 25.1722 59.2276 26.3279C59.7442 27.4835 60.0112 28.7351 60.0112 30.0009C60.0112 31.2668 59.7442 32.5184 59.2276 33.674C58.7109 34.8296 57.9564 35.8633 57.0131 36.7074L54.6641 38.8074C54.3284 39.1075 54.0645 39.4794 53.8921 39.8954C53.7197 40.3113 53.6431 40.7608 53.6681 41.2104L53.8421 44.3604C53.9115 45.6236 53.7138 46.8871 53.2619 48.0687C52.81 49.2503 52.1141 50.3234 51.2196 51.2179C50.3251 52.1124 49.252 52.8083 48.0704 53.2602C46.8888 53.7121 45.6252 53.9098 44.3621 53.8404L41.2121 53.6664C40.763 53.6419 40.3141 53.7187 39.8987 53.8911C39.4832 54.0635 39.1119 54.3271 38.8121 54.6624L36.7121 57.0114C35.8679 57.9547 34.8343 58.7093 33.6787 59.2259C32.523 59.7425 31.2714 60.0095 30.0056 60.0095C28.7398 60.0095 27.4882 59.7425 26.3325 59.2259C25.1769 58.7093 24.1433 57.9547 23.2991 57.0114L21.1991 54.6624C20.899 54.3267 20.5271 54.0628 20.1112 53.8904C19.6952 53.718 19.2457 53.6414 18.7961 53.6664L15.6461 53.8404C14.3829 53.9098 13.1194 53.7121 11.9378 53.2602C10.7562 52.8083 9.68312 52.1124 8.78859 51.2179C7.89407 50.3234 7.19817 49.2503 6.74629 48.0687C6.29442 46.8871 6.09672 45.6236 6.1661 44.3604L6.3401 41.2104C6.36461 40.7613 6.28783 40.3124 6.11542 39.897C5.94302 39.4816 5.67941 39.1102 5.3441 38.8104L2.9981 36.7104C2.05483 35.8663 1.30025 34.8326 0.78364 33.677C0.267026 32.5214 0 31.2698 0 30.0039C0 28.7381 0.267026 27.4865 0.78364 26.3309C1.30025 25.1752 2.05483 24.1416 2.9981 23.2974L5.3441 21.1974C5.67982 20.8973 5.94367 20.5255 6.11609 20.1095C6.28851 19.6935 6.36507 19.244 6.3401 18.7944L6.1661 15.6444C6.09672 14.3813 6.29442 13.1177 6.74629 11.9361C7.19817 10.7545 7.89407 9.68144 8.78859 8.78692C9.68312 7.89239 10.7562 7.19649 11.9378 6.74462C13.1194 6.29275 14.3829 6.09505 15.6461 6.16442L18.7961 6.33842C19.2452 6.36294 19.6941 6.28615 20.1095 6.11375C20.525 5.94134 20.8963 5.67773 21.1961 5.34242L23.2991 2.99642ZM41.1251 18.8814C41.6875 19.444 42.0035 20.2069 42.0035 21.0024C42.0035 21.7979 41.6875 22.5608 41.1251 23.1234L23.1251 41.1234C22.5593 41.6699 21.8015 41.9723 21.0149 41.9654C20.2283 41.9586 19.4759 41.6431 18.9196 41.0869C18.3634 40.5307 18.0479 39.7782 18.0411 38.9916C18.0342 38.205 18.3366 37.4472 18.8831 36.8814L36.8831 18.8814C37.4457 18.319 38.2086 18.0031 39.0041 18.0031C39.7996 18.0031 40.5625 18.319 41.1251 18.8814ZM22.5041 18.0024C21.3106 18.0024 20.166 18.4765 19.3221 19.3204C18.4782 20.1644 18.0041 21.3089 18.0041 22.5024V22.5324C18.0041 23.7259 18.4782 24.8705 19.3221 25.7144C20.166 26.5583 21.3106 27.0324 22.5041 27.0324H22.5341C23.7276 27.0324 24.8722 26.5583 25.7161 25.7144C26.56 24.8705 27.0341 23.7259 27.0341 22.5324V22.5024C27.0341 21.3089 26.56 20.1644 25.7161 19.3204C24.8722 18.4765 23.7276 18.0024 22.5341 18.0024H22.5041ZM37.5041 33.0024C36.3106 33.0024 35.166 33.4765 34.3221 34.3204C33.4782 35.1644 33.0041 36.3089 33.0041 37.5024V37.5324C33.0041 38.7259 33.4782 39.8705 34.3221 40.7144C35.166 41.5583 36.3106 42.0324 37.5041 42.0324H37.5341C38.7276 42.0324 39.8722 41.5583 40.7161 40.7144C41.56 39.8705 42.0341 38.7259 42.0341 37.5324V37.5024C42.0341 36.3089 41.56 35.1644 40.7161 34.3204C39.8722 33.4765 38.7276 33.0024 37.5341 33.0024H37.5041Z" fill="#BC7428"/>
</svg>
